<svg width="1260" height="45" viewBox="0 0 1260 45" fill="none" xmlns="http://www.w3.org/2000/svg">
<line y1="25" x2="20" y2="25" stroke="black" stroke-width="4"/>
<line y1="29" x2="12" y2="29" stroke="black" stroke-width="4"/>
<line x1="286" y1="44" x2="287" y2="44" stroke="black" stroke-width="2"/>
<line x1="306" y1="36" x2="307" y2="36" stroke="black" stroke-width="2"/>
<line x1="684" y1="18" x2="685" y2="18" stroke="black" stroke-width="2"/>
<line x1="733" y1="18" x2="734" y2="18" stroke="black" stroke-width="2"/>
<line x1="306" y1="42" x2="307" y2="42" stroke="black" stroke-width="2"/>
<line x1="684" y1="24" x2="685" y2="24" stroke="black" stroke-width="2"/>
<line x1="733" y1="24" x2="734" y2="24" stroke="black" stroke-width="2"/>
<line x1="88" y1="0.5" x2="96" y2="0.5" stroke="black"/>
<line x1="1249" y1="17.5" x2="1260" y2="17.5" stroke="black"/>
<line x1="827" y1="17.75" x2="1018" y2="17.75" stroke="black" stroke-width="0.5"/>
<path d="M953.847 33.0614H953.389L958.106 20.7949H958.564L953.847 33.0614ZM958.176 33.0614H957.718L962.435 20.7949H962.893L958.176 33.0614ZM962.505 33.0614H962.048L966.765 20.7949H967.223L962.505 33.0614ZM966.835 33.0614H966.377L971.094 20.7949H971.552L966.835 33.0614ZM971.164 33.0614H970.706L975.424 20.7949H975.881L971.164 33.0614ZM975.493 33.0614H975.036L979.753 20.7949H980.211L975.493 33.0614ZM979.823 33.0614H979.365L984.082 20.7949H984.54L979.823 33.0614ZM984.152 33.0614H983.694L988.412 20.7949H988.869L984.152 33.0614ZM988.481 33.0614H988.024L992.741 20.7949H993.199L988.481 33.0614ZM992.811 33.0614H992.353L997.07 20.7949H997.528L992.811 33.0614ZM997.14 33.0614H996.682L1001.4 20.7949H1001.86L997.14 33.0614ZM1001.47 33.0614H1001.01L1005.73 20.7949H1006.19L1001.47 33.0614ZM1005.8 33.0614H1005.34L1010.06 20.7949H1010.52L1005.8 33.0614ZM1010.13 33.0614H1009.67L1014.39 20.7949H1014.85L1010.13 33.0614ZM1014.46 33.0614H1014L1018.72 20.7949H1019.17L1014.46 33.0614ZM1018.79 33.0614H1018.33L1023.05 20.7949H1023.5L1018.79 33.0614Z" fill="#474747"/>
<path d="M1028.71 19.7888H1021.31V18.4223L1025.01 15.0854C1025.55 14.5982 1026 14.1003 1026.35 13.5918C1026.7 13.0727 1026.87 12.5272 1026.87 11.9551V11.7645C1026.87 11.0971 1026.7 10.5833 1026.35 10.2232C1026 9.8524 1025.48 9.66702 1024.79 9.66702C1024.11 9.66702 1023.59 9.8418 1023.22 10.1914C1022.86 10.5304 1022.59 10.9859 1022.41 11.5579L1021.21 11.113C1021.32 10.7846 1021.46 10.4668 1021.64 10.1596C1021.83 9.8418 1022.07 9.56108 1022.36 9.31744C1022.64 9.0738 1022.99 8.87782 1023.39 8.72952C1023.8 8.58121 1024.28 8.50706 1024.82 8.50706C1025.37 8.50706 1025.86 8.58651 1026.28 8.74541C1026.72 8.9043 1027.08 9.12676 1027.36 9.41278C1027.66 9.69879 1027.88 10.0378 1028.03 10.4297C1028.19 10.8217 1028.27 11.2507 1028.27 11.7168C1028.27 12.1405 1028.21 12.5378 1028.08 12.9085C1027.96 13.2793 1027.79 13.6342 1027.57 13.9732C1027.36 14.3121 1027.1 14.6458 1026.79 14.9742C1026.49 15.292 1026.16 15.6098 1025.79 15.9276L1022.69 18.6289H1028.71V19.7888ZM1034.48 19.9795C1033.8 19.9795 1033.22 19.8524 1032.73 19.5981C1032.24 19.3333 1031.84 18.9573 1031.52 18.47C1031.2 17.9827 1030.97 17.3842 1030.82 16.6744C1030.67 15.9647 1030.6 15.1543 1030.6 14.2433C1030.6 13.3429 1030.67 12.5378 1030.82 11.828C1030.97 11.1077 1031.2 10.5039 1031.52 10.0166C1031.84 9.5293 1032.24 9.15854 1032.73 8.9043C1033.22 8.63947 1033.8 8.50706 1034.48 8.50706C1035.15 8.50706 1035.74 8.63947 1036.22 8.9043C1036.71 9.15854 1037.11 9.5293 1037.43 10.0166C1037.75 10.5039 1037.98 11.1077 1038.13 11.828C1038.28 12.5378 1038.35 13.3429 1038.35 14.2433C1038.35 15.1543 1038.28 15.9647 1038.13 16.6744C1037.98 17.3842 1037.75 17.9827 1037.43 18.47C1037.11 18.9573 1036.71 19.3333 1036.22 19.5981C1035.74 19.8524 1035.15 19.9795 1034.48 19.9795ZM1034.48 18.8195C1034.92 18.8195 1035.3 18.7348 1035.62 18.5653C1035.94 18.3852 1036.19 18.1363 1036.38 17.8185C1036.58 17.5007 1036.73 17.1193 1036.83 16.6744C1036.92 16.2189 1036.97 15.7104 1036.97 15.149V13.3376C1036.97 12.7867 1036.92 12.2835 1036.83 11.828C1036.73 11.3725 1036.58 10.9859 1036.38 10.6681C1036.19 10.3503 1035.94 10.1066 1035.62 9.93714C1035.3 9.75706 1034.92 9.66702 1034.48 9.66702C1034.03 9.66702 1033.65 9.75706 1033.33 9.93714C1033.01 10.1066 1032.75 10.3503 1032.55 10.6681C1032.36 10.9859 1032.22 11.3725 1032.12 11.828C1032.03 12.2835 1031.98 12.7867 1031.98 13.3376V15.149C1031.98 15.7104 1032.03 16.2189 1032.12 16.6744C1032.22 17.1193 1032.36 17.5007 1032.55 17.8185C1032.75 18.1363 1033.01 18.3852 1033.33 18.5653C1033.65 18.7348 1034.03 18.8195 1034.48 18.8195ZM1034.48 15.1808C1034.11 15.1808 1033.85 15.1066 1033.7 14.9583C1033.56 14.81 1033.49 14.6299 1033.49 14.4181V14.0685C1033.49 13.8566 1033.56 13.6765 1033.7 13.5282C1033.85 13.3799 1034.11 13.3058 1034.48 13.3058C1034.85 13.3058 1035.1 13.3799 1035.24 13.5282C1035.39 13.6765 1035.46 13.8566 1035.46 14.0685V14.4181C1035.46 14.6299 1035.39 14.81 1035.24 14.9583C1035.1 15.1066 1034.85 15.1808 1034.48 15.1808ZM1047.77 19.7888H1040.36V18.4223L1044.07 15.0854C1044.61 14.5982 1045.05 14.1003 1045.4 13.5918C1045.75 13.0727 1045.93 12.5272 1045.93 11.9551V11.7645C1045.93 11.0971 1045.75 10.5833 1045.4 10.2232C1045.05 9.8524 1044.53 9.66702 1043.84 9.66702C1043.17 9.66702 1042.64 9.8418 1042.27 10.1914C1041.91 10.5304 1041.64 10.9859 1041.46 11.5579L1040.27 11.113C1040.38 10.7846 1040.52 10.4668 1040.7 10.1596C1040.89 9.8418 1041.13 9.56108 1041.41 9.31744C1041.7 9.0738 1042.04 8.87782 1042.45 8.72952C1042.86 8.58121 1043.34 8.50706 1043.88 8.50706C1044.43 8.50706 1044.91 8.58651 1045.34 8.74541C1045.77 8.9043 1046.13 9.12676 1046.42 9.41278C1046.72 9.69879 1046.94 10.0378 1047.09 10.4297C1047.24 10.8217 1047.32 11.2507 1047.32 11.7168C1047.32 12.1405 1047.26 12.5378 1047.13 12.9085C1047.02 13.2793 1046.85 13.6342 1046.63 13.9732C1046.41 14.3121 1046.15 14.6458 1045.85 14.9742C1045.55 15.292 1045.22 15.6098 1044.85 15.9276L1041.75 18.6289H1047.77V19.7888ZM1050.11 19.7888V18.6289H1053.29V9.6829H1053.18L1050.38 12.2888L1049.61 11.4467L1052.55 8.69774H1054.63V18.6289H1057.55V19.7888H1050.11ZM1066.82 19.7888H1059.42V18.4223L1063.12 15.0854C1063.66 14.5982 1064.11 14.1003 1064.46 13.5918C1064.81 13.0727 1064.98 12.5272 1064.98 11.9551V11.7645C1064.98 11.0971 1064.81 10.5833 1064.46 10.2232C1064.11 9.8524 1063.59 9.66702 1062.9 9.66702C1062.22 9.66702 1061.7 9.8418 1061.33 10.1914C1060.97 10.5304 1060.7 10.9859 1060.52 11.5579L1059.32 11.113C1059.43 10.7846 1059.57 10.4668 1059.75 10.1596C1059.94 9.8418 1060.18 9.56108 1060.47 9.31744C1060.75 9.0738 1061.1 8.87782 1061.5 8.72952C1061.91 8.58121 1062.39 8.50706 1062.93 8.50706C1063.48 8.50706 1063.97 8.58651 1064.39 8.74541C1064.83 8.9043 1065.19 9.12676 1065.47 9.41278C1065.77 9.69879 1065.99 10.0378 1066.14 10.4297C1066.3 10.8217 1066.38 11.2507 1066.38 11.7168C1066.38 12.1405 1066.32 12.5378 1066.19 12.9085C1066.07 13.2793 1065.9 13.6342 1065.68 13.9732C1065.47 14.3121 1065.21 14.6458 1064.9 14.9742C1064.61 15.292 1064.27 15.6098 1063.9 15.9276L1060.8 18.6289H1066.82V19.7888ZM1072.59 19.9795C1071.91 19.9795 1071.33 19.8524 1070.84 19.5981C1070.35 19.3333 1069.95 18.9573 1069.63 18.47C1069.31 17.9827 1069.08 17.3842 1068.93 16.6744C1068.78 15.9647 1068.71 15.1543 1068.71 14.2433C1068.71 13.3429 1068.78 12.5378 1068.93 11.828C1069.08 11.1077 1069.31 10.5039 1069.63 10.0166C1069.95 9.5293 1070.35 9.15854 1070.84 8.9043C1071.33 8.63947 1071.91 8.50706 1072.59 8.50706C1073.26 8.50706 1073.85 8.63947 1074.33 8.9043C1074.82 9.15854 1075.22 9.5293 1075.54 10.0166C1075.86 10.5039 1076.09 11.1077 1076.24 11.828C1076.39 12.5378 1076.46 13.3429 1076.46 14.2433C1076.46 15.1543 1076.39 15.9647 1076.24 16.6744C1076.09 17.3842 1075.86 17.9827 1075.54 18.47C1075.22 18.9573 1074.82 19.3333 1074.33 19.5981C1073.85 19.8524 1073.26 19.9795 1072.59 19.9795ZM1072.59 18.8195C1073.03 18.8195 1073.41 18.7348 1073.73 18.5653C1074.05 18.3852 1074.3 18.1363 1074.49 17.8185C1074.69 17.5007 1074.84 17.1193 1074.94 16.6744C1075.03 16.2189 1075.08 15.7104 1075.08 15.149V13.3376C1075.08 12.7867 1075.03 12.2835 1074.94 11.828C1074.84 11.3725 1074.69 10.9859 1074.49 10.6681C1074.3 10.3503 1074.05 10.1066 1073.73 9.93714C1073.41 9.75706 1073.03 9.66702 1072.59 9.66702C1072.14 9.66702 1071.76 9.75706 1071.44 9.93714C1071.12 10.1066 1070.87 10.3503 1070.66 10.6681C1070.47 10.9859 1070.33 11.3725 1070.23 11.828C1070.14 12.2835 1070.09 12.7867 1070.09 13.3376V15.149C1070.09 15.7104 1070.14 16.2189 1070.23 16.6744C1070.33 17.1193 1070.47 17.5007 1070.66 17.8185C1070.87 18.1363 1071.12 18.3852 1071.44 18.5653C1071.76 18.7348 1072.14 18.8195 1072.59 18.8195ZM1072.59 15.1808C1072.22 15.1808 1071.96 15.1066 1071.81 14.9583C1071.67 14.81 1071.6 14.6299 1071.6 14.4181V14.0685C1071.6 13.8566 1071.67 13.6765 1071.81 13.5282C1071.96 13.3799 1072.22 13.3058 1072.59 13.3058C1072.96 13.3058 1073.21 13.3799 1073.35 13.5282C1073.5 13.6765 1073.57 13.8566 1073.57 14.0685V14.4181C1073.57 14.6299 1073.5 14.81 1073.35 14.9583C1073.21 15.1066 1072.96 15.1808 1072.59 15.1808ZM1081.64 13.4011C1082.41 13.4011 1082.99 13.2316 1083.37 12.8926C1083.76 12.5431 1083.96 12.0982 1083.96 11.5579V11.4467C1083.96 10.8535 1083.77 10.4085 1083.39 10.1119C1083.01 9.81532 1082.53 9.66702 1081.92 9.66702C1081.33 9.66702 1080.85 9.79943 1080.48 10.0643C1080.12 10.3185 1079.82 10.6575 1079.59 11.0812L1078.59 10.3185C1078.72 10.096 1078.89 9.87888 1079.1 9.66702C1079.3 9.44456 1079.53 9.24858 1079.79 9.07909C1080.07 8.9096 1080.38 8.77189 1080.73 8.66596C1081.09 8.56003 1081.5 8.50706 1081.96 8.50706C1082.43 8.50706 1082.88 8.57062 1083.29 8.69774C1083.7 8.81426 1084.06 8.99435 1084.37 9.23799C1084.68 9.47104 1084.92 9.76235 1085.09 10.1119C1085.27 10.4615 1085.36 10.8588 1085.36 11.3037C1085.36 11.6638 1085.3 11.9869 1085.18 12.2729C1085.07 12.559 1084.92 12.8079 1084.72 13.0198C1084.53 13.2316 1084.3 13.4117 1084.04 13.56C1083.77 13.7083 1083.49 13.8195 1083.19 13.8937V13.9573C1083.5 14.0208 1083.8 14.1268 1084.08 14.2751C1084.37 14.4128 1084.62 14.5982 1084.85 14.8312C1085.07 15.0537 1085.24 15.3291 1085.37 15.6575C1085.51 15.9753 1085.58 16.3407 1085.58 16.7539C1085.58 17.2306 1085.48 17.6702 1085.29 18.0727C1085.11 18.4647 1084.85 18.8037 1084.51 19.0897C1084.19 19.3651 1083.78 19.5823 1083.31 19.7411C1082.84 19.9 1082.32 19.9795 1081.75 19.9795C1081.26 19.9795 1080.83 19.9265 1080.45 19.8206C1080.07 19.7147 1079.74 19.5717 1079.44 19.3916C1079.16 19.2115 1078.9 19.0102 1078.68 18.7878C1078.47 18.5653 1078.28 18.3323 1078.11 18.0886L1079.11 17.3259C1079.26 17.5484 1079.41 17.7496 1079.57 17.9297C1079.73 18.1098 1079.91 18.2687 1080.11 18.4064C1080.32 18.5335 1080.56 18.6342 1080.83 18.7083C1081.09 18.7825 1081.4 18.8195 1081.75 18.8195C1082.53 18.8195 1083.13 18.6395 1083.54 18.2793C1083.97 17.9191 1084.18 17.4053 1084.18 16.738V16.6109C1084.18 15.9541 1083.97 15.4456 1083.56 15.0854C1083.16 14.7253 1082.55 14.5452 1081.73 14.5452H1080.41V13.4011H1081.64ZM1091.64 19.9795C1090.96 19.9795 1090.38 19.8524 1089.89 19.5981C1089.41 19.3333 1089 18.9573 1088.69 18.47C1088.37 17.9827 1088.14 17.3842 1087.99 16.6744C1087.84 15.9647 1087.76 15.1543 1087.76 14.2433C1087.76 13.3429 1087.84 12.5378 1087.99 11.828C1088.14 11.1077 1088.37 10.5039 1088.69 10.0166C1089 9.5293 1089.41 9.15854 1089.89 8.9043C1090.38 8.63947 1090.96 8.50706 1091.64 8.50706C1092.32 8.50706 1092.9 8.63947 1093.39 8.9043C1093.88 9.15854 1094.28 9.5293 1094.6 10.0166C1094.92 10.5039 1095.15 11.1077 1095.3 11.828C1095.44 12.5378 1095.52 13.3429 1095.52 14.2433C1095.52 15.1543 1095.44 15.9647 1095.3 16.6744C1095.15 17.3842 1094.92 17.9827 1094.6 18.47C1094.28 18.9573 1093.88 19.3333 1093.39 19.5981C1092.9 19.8524 1092.32 19.9795 1091.64 19.9795ZM1091.64 18.8195C1092.09 18.8195 1092.47 18.7348 1092.79 18.5653C1093.1 18.3852 1093.36 18.1363 1093.55 17.8185C1093.75 17.5007 1093.9 17.1193 1093.99 16.6744C1094.09 16.2189 1094.14 15.7104 1094.14 15.149V13.3376C1094.14 12.7867 1094.09 12.2835 1093.99 11.828C1093.9 11.3725 1093.75 10.9859 1093.55 10.6681C1093.36 10.3503 1093.1 10.1066 1092.79 9.93714C1092.47 9.75706 1092.09 9.66702 1091.64 9.66702C1091.2 9.66702 1090.82 9.75706 1090.5 9.93714C1090.18 10.1066 1089.92 10.3503 1089.72 10.6681C1089.53 10.9859 1089.39 11.3725 1089.29 11.828C1089.19 12.2835 1089.15 12.7867 1089.15 13.3376V15.149C1089.15 15.7104 1089.19 16.2189 1089.29 16.6744C1089.39 17.1193 1089.53 17.5007 1089.72 17.8185C1089.92 18.1363 1090.18 18.3852 1090.5 18.5653C1090.82 18.7348 1091.2 18.8195 1091.64 18.8195ZM1091.64 15.1808C1091.27 15.1808 1091.01 15.1066 1090.86 14.9583C1090.73 14.81 1090.66 14.6299 1090.66 14.4181V14.0685C1090.66 13.8566 1090.73 13.6765 1090.86 13.5282C1091.01 13.3799 1091.27 13.3058 1091.64 13.3058C1092.01 13.3058 1092.27 13.3799 1092.4 13.5282C1092.55 13.6765 1092.63 13.8566 1092.63 14.0685V14.4181C1092.63 14.6299 1092.55 14.81 1092.4 14.9583C1092.27 15.1066 1092.01 15.1808 1091.64 15.1808Z" fill="#474747"/>
<path d="M999.134 9.27599L1000.7 12.0381H1000.94V11.976L999.36 9.20505C999.555 9.1282 999.734 9.0351 999.897 8.92574C1000.06 8.81638 1000.2 8.68928 1000.32 8.54445C1000.44 8.39962 1000.53 8.23706 1000.6 8.05676C1000.67 7.87351 1000.7 7.66957 1000.7 7.44493C1000.7 7.1671 1000.65 6.91586 1000.54 6.69123C1000.44 6.46364 1000.31 6.26857 1000.13 6.106C999.954 5.94344 999.747 5.81782 999.511 5.72915C999.274 5.63753 999.023 5.58876 998.757 5.58284H997.006V12.0381H997.236V9.27599H999.134ZM997.236 9.03658V5.82226H998.753C998.986 5.82817 999.206 5.86955 999.413 5.9464C999.623 6.02324 999.805 6.13113 999.959 6.27004C1000.11 6.41192 1000.23 6.58187 1000.32 6.7799C1000.41 6.97793 1000.46 7.19961 1000.46 7.44493C1000.46 7.6607 1000.42 7.86464 1000.34 8.05676C1000.27 8.24593 1000.17 8.41145 1000.03 8.55332C999.901 8.69815 999.741 8.81342 999.555 8.89914C999.372 8.98485 999.171 9.03066 998.952 9.03658H997.236ZM1005.73 8.86367V8.61539H1002.7V5.82226H1006.14V5.58284H1002.47V12.0381H1002.7V8.86367H1005.73ZM1010.04 9.27599L1011.61 12.0381H1011.85V11.976L1010.27 9.20505C1010.46 9.1282 1010.64 9.0351 1010.8 8.92574C1010.97 8.81638 1011.11 8.68928 1011.23 8.54445C1011.35 8.39962 1011.44 8.23706 1011.5 8.05676C1011.57 7.87351 1011.61 7.66957 1011.61 7.44493C1011.61 7.1671 1011.55 6.91586 1011.45 6.69123C1011.35 6.46364 1011.21 6.26857 1011.04 6.106C1010.86 5.94344 1010.65 5.81782 1010.42 5.72915C1010.18 5.63753 1009.93 5.58876 1009.66 5.58284H1007.91V12.0381H1008.14V9.27599H1010.04ZM1008.14 9.03658V5.82226H1009.66C1009.89 5.82817 1010.11 5.86955 1010.32 5.9464C1010.53 6.02324 1010.71 6.13113 1010.87 6.27004C1011.02 6.41192 1011.14 6.58187 1011.23 6.7799C1011.32 6.97793 1011.37 7.19961 1011.37 7.44493C1011.37 7.6607 1011.33 7.86464 1011.25 8.05676C1011.18 8.24593 1011.07 8.41145 1010.94 8.55332C1010.81 8.69815 1010.65 8.81342 1010.46 8.89914C1010.28 8.98485 1010.08 9.03066 1009.86 9.03658H1008.14ZM1013.53 5.58284H1013.18V12.0381H1013.42V8.89914L1013.42 5.95083L1014.97 9.95432H1015.19L1016.86 5.90649L1016.85 8.89914V12.0381H1017.09V5.58284H1016.72L1015.08 9.63954L1013.53 5.58284Z" fill="#474747"/>
</svg>
