<svg width="854" height="83" viewBox="0 0 854 83" fill="none" xmlns="http://www.w3.org/2000/svg">
<path d="M399.719 59.216C398.783 59.216 397.967 59.06 397.271 58.748C396.587 58.424 395.993 57.974 395.489 57.398L396.191 56.786C396.647 57.314 397.157 57.71 397.721 57.974C398.285 58.226 398.957 58.352 399.737 58.352C400.553 58.352 401.213 58.196 401.717 57.884C402.233 57.572 402.491 57.092 402.491 56.444C402.491 56.156 402.437 55.922 402.329 55.742C402.233 55.55 402.095 55.394 401.915 55.274C401.735 55.154 401.525 55.064 401.285 55.004C401.045 54.932 400.781 54.878 400.493 54.842L399.053 54.644C398.693 54.596 398.327 54.53 397.955 54.446C397.595 54.35 397.265 54.212 396.965 54.032C396.677 53.852 396.437 53.612 396.245 53.312C396.065 53.012 395.975 52.628 395.975 52.16C395.975 51.704 396.065 51.308 396.245 50.972C396.425 50.636 396.677 50.36 397.001 50.144C397.325 49.928 397.703 49.766 398.135 49.658C398.579 49.55 399.053 49.496 399.557 49.496C400.421 49.496 401.147 49.64 401.735 49.928C402.335 50.204 402.839 50.552 403.247 50.972L402.563 51.62C402.431 51.476 402.275 51.332 402.095 51.188C401.927 51.032 401.717 50.894 401.465 50.774C401.225 50.654 400.943 50.558 400.619 50.486C400.295 50.402 399.923 50.36 399.503 50.36C398.711 50.36 398.093 50.504 397.649 50.792C397.217 51.08 397.001 51.512 397.001 52.088C397.001 52.376 397.049 52.616 397.145 52.808C397.253 52.988 397.397 53.138 397.577 53.258C397.757 53.378 397.967 53.474 398.207 53.546C398.447 53.606 398.705 53.654 398.981 53.69L400.439 53.906C400.799 53.966 401.159 54.044 401.519 54.14C401.891 54.224 402.221 54.356 402.509 54.536C402.809 54.716 403.049 54.956 403.229 55.256C403.409 55.544 403.499 55.922 403.499 56.39C403.499 56.858 403.403 57.266 403.211 57.614C403.031 57.962 402.773 58.256 402.437 58.496C402.113 58.736 401.717 58.916 401.249 59.036C400.781 59.156 400.271 59.216 399.719 59.216ZM410.674 59.216C409.378 59.216 408.376 58.79 407.668 57.938C406.96 57.086 406.606 55.892 406.606 54.356C406.606 52.82 406.96 51.626 407.668 50.774C408.388 49.922 409.384 49.496 410.656 49.496C411.52 49.496 412.228 49.694 412.78 50.09C413.332 50.474 413.728 50.972 413.968 51.584L413.14 51.998C412.948 51.482 412.642 51.086 412.222 50.81C411.802 50.534 411.28 50.396 410.656 50.396C409.708 50.396 408.976 50.702 408.46 51.314C407.956 51.914 407.704 52.712 407.704 53.708V55.004C407.704 56 407.956 56.804 408.46 57.416C408.976 58.016 409.714 58.316 410.674 58.316C411.334 58.316 411.886 58.166 412.33 57.866C412.774 57.566 413.116 57.146 413.356 56.606L414.112 57.092C413.848 57.704 413.434 58.214 412.87 58.622C412.306 59.018 411.574 59.216 410.674 59.216ZM417.111 58.118H420.027V50.594H417.111V49.712H421.053V51.836H421.125C421.329 51.188 421.677 50.672 422.169 50.288C422.673 49.904 423.333 49.712 424.149 49.712H425.751V50.72H423.843C423.003 50.72 422.325 50.972 421.809 51.476C421.305 51.968 421.053 52.634 421.053 53.474V58.118H424.833V59H417.111V58.118ZM431.9 59.216C430.628 59.216 429.632 58.79 428.912 57.938C428.204 57.086 427.85 55.892 427.85 54.356C427.85 52.82 428.204 51.626 428.912 50.774C429.632 49.922 430.628 49.496 431.9 49.496C433.172 49.496 434.162 49.922 434.87 50.774C435.59 51.626 435.95 52.82 435.95 54.356C435.95 55.892 435.59 57.086 434.87 57.938C434.162 58.79 433.172 59.216 431.9 59.216ZM431.9 58.316C432.812 58.316 433.532 58.028 434.06 57.452C434.588 56.876 434.852 56.036 434.852 54.932V53.78C434.852 52.676 434.588 51.836 434.06 51.26C433.532 50.684 432.812 50.396 431.9 50.396C430.988 50.396 430.268 50.684 429.74 51.26C429.212 51.836 428.948 52.676 428.948 53.78V54.932C428.948 56.036 429.212 56.876 429.74 57.452C430.268 58.028 430.988 58.316 431.9 58.316ZM438.805 58.118H442.189V46.562H438.805V45.68H443.215V58.118H446.581V59H438.805V58.118ZM449.598 58.118H452.982V46.562H449.598V45.68H454.008V58.118H457.374V59H449.598V58.118Z" fill="black"/>
<path d="M427 83L413.144 71L440.856 71L427 83Z" fill="black"/>
<rect width="402" height="1" fill="black"/>
<rect x="452" width="402" height="1" fill="black"/>
<rect x="419" width="15" height="1" fill="black"/>
</svg>
