<svg width="35" height="35" viewBox="0 0 35 35" fill="none" xmlns="http://www.w3.org/2000/svg">
<g clip-path="url(#clip0)">
<path d="M26.5855 0.253886L5.73057 15.9041C5.51295 16.0674 5.24093 16.158 4.96891 16.158H1.34197C0.598446 16.158 0 16.7565 0 17.5V33.6399C0 34.3834 0.598446 35 1.3601 35H7.59845C7.90674 35 8.19689 34.8912 8.45078 34.7098L29.2694 19.0596C29.4689 18.9145 29.6865 18.842 29.9404 18.842L33.6943 18.8238C34.4197 18.8238 35.0181 18.2254 35.0181 17.5V1.3601C35.0181 0.61658 34.4016 0 33.658 0H27.3834C27.0933 0 26.8212 0.0906736 26.5855 0.253886Z" fill="black"/>
<path d="M13.4741 1.34197V6.00259C13.4741 6.43782 13.2746 6.85492 12.9119 7.10881L4.7513 13.2202C4.53368 13.3834 4.27979 13.456 4.02591 13.456H1.32383C0.580311 13.456 0 12.8575 0 12.1321V3.40933C0 2.95596 0.217617 2.52073 0.580311 2.2487L3.26425 0.253886C3.48187 0.0906736 3.73575 0 4.00777 0H12.1503C12.8756 0 13.456 0.598446 13.4741 1.34197Z" fill="black"/>
</g>
<defs>
<clipPath id="clip0">
<rect width="35" height="35" fill="white"/>
</clipPath>
</defs>
</svg>
