<svg width="159" height="109" viewBox="0 0 159 109" fill="none" xmlns="http://www.w3.org/2000/svg">
<g clip-path="url(#clip0)">
<path d="M1.89416 94.9538H0.97974V87.3554H3.74478C4.44875 87.3554 4.98579 87.5477 5.35591 87.9323C5.72604 88.317 5.9111 88.854 5.9111 89.5435C5.9111 90.1603 5.75144 90.6538 5.43211 91.024C5.11279 91.3941 4.64832 91.6082 4.03871 91.6662L5.97641 94.9538H4.95313L3.10251 91.7098H1.89416V94.9538ZM3.72301 90.9369C4.10765 90.9369 4.4052 90.8425 4.61566 90.6538C4.83338 90.4579 4.94224 90.1821 4.94224 89.8265V89.2604C4.94224 88.9048 4.83338 88.6327 4.61566 88.444C4.4052 88.248 4.10765 88.15 3.72301 88.15H1.89416V90.9369H3.72301ZM7.50709 94.9538V87.3554H12.1881V88.15H8.42151V90.7083H12.0574V91.5029H8.42151V94.1591H12.1881V94.9538H7.50709ZM14.0344 94.9538V87.3554H18.8243V88.15H14.9489V90.7083H18.4977V91.5029H14.9489V94.9538H14.0344ZM21.4762 94.9538H20.5618V87.3554H23.3268C24.0308 87.3554 24.5678 87.5477 24.938 87.9323C25.3081 88.317 25.4931 88.854 25.4931 89.5435C25.4931 90.1603 25.3335 90.6538 25.0142 91.024C24.6948 91.3941 24.2304 91.6082 23.6207 91.6662L25.5585 94.9538H24.5352L22.6846 91.7098H21.4762V94.9538ZM23.3051 90.9369C23.6897 90.9369 23.9872 90.8425 24.1977 90.6538C24.4154 90.4579 24.5243 90.1821 24.5243 89.8265V89.2604C24.5243 88.9048 24.4154 88.6327 24.1977 88.444C23.9872 88.248 23.6897 88.15 23.3051 88.15H21.4762V90.9369H23.3051ZM31.3456 94.9538L30.7033 92.7875H28.0362L27.3939 94.9538H26.4469L28.7765 87.3554H29.9848L32.3144 94.9538H31.3456ZM29.4187 88.3242H29.3208L28.2539 91.9928H30.4856L29.4187 88.3242ZM37.5899 91.1437V88.7379H37.5028L35.9025 92.646L34.3023 88.7379H34.2152V91.1437V94.9538H33.377V87.3554H34.5527L35.8917 90.7083H35.957L37.2959 87.3554H38.4281V94.9538H37.5899V91.1437ZM40.0785 94.9538V94.2244H41.9727V88.0847H40.0785V87.3554H44.7813V88.0847H42.8871V94.2244H44.7813V94.9538H40.0785ZM47.4659 88.5202H47.3896V94.9538H46.5623V87.3554H47.8577L50.4486 93.7237H50.5248V87.3554H51.3522V94.9538H50.0567L47.4659 88.5202ZM57.0522 93.9414H56.9977C56.9324 94.0865 56.8562 94.2281 56.7691 94.366C56.682 94.5038 56.5696 94.6272 56.4317 94.7361C56.301 94.8377 56.1414 94.9211 55.9527 94.9865C55.764 95.0518 55.539 95.0844 55.2777 95.0844C54.4504 95.0844 53.8335 94.7506 53.4271 94.0829C53.028 93.4152 52.8284 92.4573 52.8284 91.209C52.8284 89.9027 53.0497 88.9121 53.4924 88.2371C53.9351 87.5622 54.6173 87.2247 55.539 87.2247C55.8946 87.2247 56.2031 87.2719 56.4643 87.3663C56.7256 87.4606 56.9469 87.5876 57.1284 87.7473C57.3171 87.9069 57.4731 88.0884 57.5965 88.2916C57.7198 88.4875 57.8214 88.6871 57.9013 88.8903L57.1175 89.2495C57.0522 89.0826 56.976 88.9266 56.8889 88.7814C56.809 88.629 56.7074 88.4984 56.5841 88.3895C56.4679 88.2734 56.3264 88.1827 56.1595 88.1174C55.9926 88.0521 55.7966 88.0194 55.5717 88.0194C54.9621 88.0194 54.5121 88.248 54.2218 88.7052C53.9388 89.1624 53.7973 89.7721 53.7973 90.5341V91.7098C53.7973 92.0944 53.8263 92.4464 53.8843 92.7657C53.9424 93.0778 54.0367 93.3499 54.1674 93.5822C54.3053 93.8144 54.4794 93.9958 54.6899 94.1265C54.9076 94.2498 55.1725 94.3115 55.4846 94.3115C55.9781 94.3115 56.3627 94.1627 56.6385 93.8652C56.9143 93.5676 57.0522 93.183 57.0522 92.7113V91.9275H55.4519V91.1981H57.9013V94.9538H57.0522V93.9414ZM68.9965 88.15V94.9538H68.0821V88.15H65.5456V87.3554H71.5329V88.15H68.9965ZM76.5471 91.5029H73.5861V94.9538H72.6717V87.3554H73.5861V90.7083H76.5471V87.3554H77.4615V94.9538H76.5471V91.5029ZM79.3079 94.9538V87.3554H83.9889V88.15H80.2223V90.7083H83.8583V91.5029H80.2223V94.1591H83.9889V94.9538H79.3079ZM92.3626 94.9538V87.3554H95.1276C95.8316 87.3554 96.3687 87.5477 96.7388 87.9323C97.1089 88.317 97.294 88.854 97.294 89.5435C97.294 90.2329 97.1089 90.7699 96.7388 91.1546C96.3687 91.5392 95.8316 91.7315 95.1276 91.7315H93.277V94.9538H92.3626ZM93.277 90.9369H95.1059C95.4905 90.9369 95.7881 90.8425 95.9985 90.6538C96.2163 90.4579 96.3251 90.1821 96.3251 89.8265V89.2604C96.3251 88.9048 96.2163 88.6327 95.9985 88.444C95.7881 88.248 95.4905 88.15 95.1059 88.15H93.277V90.9369ZM99.8044 94.9538H98.89V87.3554H101.655C102.359 87.3554 102.896 87.5477 103.266 87.9323C103.636 88.317 103.821 88.854 103.821 89.5435C103.821 90.1603 103.662 90.6538 103.342 91.024C103.023 91.3941 102.559 91.6082 101.949 91.6662L103.887 94.9538H102.863L101.013 91.7098H99.8044V94.9538ZM101.633 90.9369C102.018 90.9369 102.315 90.8425 102.526 90.6538C102.744 90.4579 102.852 90.1821 102.852 89.8265V89.2604C102.852 88.9048 102.744 88.6327 102.526 88.444C102.315 88.248 102.018 88.15 101.633 88.15H99.8044V90.9369H101.633ZM105.417 94.9538V87.3554H110.098V88.15H106.332V90.7083H109.968V91.5029H106.332V94.1591H110.098V94.9538H105.417ZM114.209 95.0844C113.527 95.0844 112.968 94.9611 112.532 94.7143C112.097 94.4603 111.738 94.1373 111.455 93.7455L112.119 93.2012C112.416 93.5713 112.728 93.8471 113.055 94.0285C113.389 94.2099 113.784 94.3006 114.242 94.3006C114.793 94.3006 115.214 94.1736 115.504 93.9196C115.795 93.6656 115.94 93.31 115.94 92.8528C115.94 92.4827 115.835 92.196 115.624 91.9928C115.414 91.7823 115.047 91.6336 114.525 91.5465L113.676 91.405C113.305 91.3396 112.993 91.2417 112.739 91.111C112.493 90.9804 112.293 90.8244 112.141 90.6429C111.988 90.4542 111.879 90.251 111.814 90.0333C111.749 89.8083 111.716 89.5761 111.716 89.3366C111.716 88.6399 111.945 88.1138 112.402 87.7582C112.859 87.4025 113.476 87.2247 114.252 87.2247C114.862 87.2247 115.374 87.3263 115.787 87.5295C116.208 87.7327 116.546 88.0194 116.8 88.3895L116.158 88.9447C115.947 88.6689 115.693 88.444 115.396 88.2698C115.098 88.0956 114.713 88.0085 114.242 88.0085C113.726 88.0085 113.331 88.1174 113.055 88.3351C112.779 88.5528 112.641 88.8794 112.641 89.3148C112.641 89.6559 112.743 89.9354 112.946 90.1531C113.157 90.3635 113.53 90.5159 114.067 90.6103L114.884 90.7518C115.254 90.8171 115.566 90.9151 115.82 91.0457C116.074 91.1764 116.277 91.3324 116.43 91.5138C116.589 91.6953 116.702 91.8985 116.767 92.1234C116.832 92.3484 116.865 92.5843 116.865 92.831C116.865 93.535 116.633 94.0865 116.168 94.4857C115.711 94.8849 115.058 95.0844 114.209 95.0844ZM118.472 94.9538V87.3554H123.153V88.15H119.386V90.7083H123.022V91.5029H119.386V94.1591H123.153V94.9538H118.472ZM125.794 88.5202H125.718V94.9538H124.89V87.3554H126.186L128.777 93.7237H128.853V87.3554H129.68V94.9538H128.385L125.794 88.5202ZM134.27 88.15V94.9538H133.356V88.15H130.819V87.3554H136.806V88.15H134.27Z" fill="black"/>
<path d="M0.97974 105.84V98.2412H5.76958V99.0358H1.89416V101.594H5.443V102.389H1.89416V105.84H0.97974ZM9.79315 105.97C9.32868 105.97 8.92952 105.883 8.59569 105.709C8.26185 105.528 7.98607 105.27 7.76835 104.936C7.55063 104.602 7.39097 104.192 7.28937 103.706C7.18776 103.22 7.13696 102.665 7.13696 102.04C7.13696 101.424 7.18776 100.872 7.28937 100.386C7.39097 99.8922 7.55063 99.4785 7.76835 99.1447C7.98607 98.8109 8.26185 98.5569 8.59569 98.3827C8.92952 98.2013 9.32868 98.1105 9.79315 98.1105C10.2576 98.1105 10.6568 98.2013 10.9906 98.3827C11.3244 98.5569 11.6002 98.8109 11.8179 99.1447C12.0357 99.4785 12.1953 99.8922 12.2969 100.386C12.3985 100.872 12.4493 101.424 12.4493 102.04C12.4493 102.665 12.3985 103.22 12.2969 103.706C12.1953 104.192 12.0357 104.602 11.8179 104.936C11.6002 105.27 11.3244 105.528 10.9906 105.709C10.6568 105.883 10.2576 105.97 9.79315 105.97ZM9.79315 105.176C10.098 105.176 10.3556 105.117 10.5661 105.001C10.7765 104.878 10.9507 104.707 11.0886 104.49C11.2265 104.272 11.3244 104.011 11.3825 103.706C11.4478 103.394 11.4805 103.046 11.4805 102.661V101.42C11.4805 101.043 11.4478 100.698 11.3825 100.386C11.3244 100.074 11.2265 99.8088 11.0886 99.591C10.9507 99.3733 10.7765 99.2064 10.5661 99.0903C10.3556 98.9669 10.098 98.9052 9.79315 98.9052C9.48834 98.9052 9.2307 98.9669 9.02024 99.0903C8.80978 99.2064 8.6356 99.3733 8.49771 99.591C8.35982 99.8088 8.25822 100.074 8.19291 100.386C8.13485 100.698 8.10582 101.043 8.10582 101.42V102.661C8.10582 103.046 8.13485 103.394 8.19291 103.706C8.25822 104.011 8.35982 104.272 8.49771 104.49C8.6356 104.707 8.80978 104.878 9.02024 105.001C9.2307 105.117 9.48834 105.176 9.79315 105.176ZM14.9489 105.84H14.0344V98.2412H16.7995C17.5034 98.2412 18.0405 98.4335 18.4106 98.8181C18.7807 99.2028 18.9658 99.7398 18.9658 100.429C18.9658 101.046 18.8061 101.54 18.4868 101.91C18.1675 102.28 17.703 102.494 17.0934 102.552L19.0311 105.84H18.0078L16.1572 102.596H14.9489V105.84ZM16.7777 101.823C17.1623 101.823 17.4599 101.728 17.6704 101.54C17.8881 101.344 17.9969 101.068 17.9969 100.712V100.146C17.9969 99.7906 17.8881 99.5185 17.6704 99.3298C17.4599 99.1338 17.1623 99.0358 16.7777 99.0358H14.9489V101.823H16.7777ZM31.3456 105.84L30.7033 103.673H28.0362L27.3939 105.84H26.4469L28.7765 98.2412H29.9848L32.3144 105.84H31.3456ZM29.4187 99.21H29.3208L28.2539 102.879H30.4856L29.4187 99.21ZM41.0582 105.84H40.1438V98.2412H42.9089C43.6128 98.2412 44.1499 98.4335 44.52 98.8181C44.8901 99.2028 45.0752 99.7398 45.0752 100.429C45.0752 101.046 44.9155 101.54 44.5962 101.91C44.2769 102.28 43.8124 102.494 43.2028 102.552L45.1405 105.84H44.1172L42.2666 102.596H41.0582V105.84ZM42.8871 101.823C43.2717 101.823 43.5693 101.728 43.7797 101.54C43.9975 101.344 44.1063 101.068 44.1063 100.712V100.146C44.1063 99.7906 43.9975 99.5185 43.7797 99.3298C43.5693 99.1338 43.2717 99.0358 42.8871 99.0358H41.0582V101.823H42.8871ZM46.6712 105.84V98.2412H51.3522V99.0358H47.5856V101.594H51.2215V102.389H47.5856V105.045H51.3522V105.84H46.6712ZM53.1332 105.84V105.11H55.0274V98.9705H53.1332V98.2412H57.836V98.9705H55.9418V105.11H57.836V105.84H53.1332ZM63.6993 102.029V99.6237H63.6122L62.0119 103.532L60.4117 99.6237H60.3246V102.029V105.84H59.4864V98.2412H60.6621L62.001 101.594H62.0664L63.4053 98.2412H64.5375V105.84H63.6993V102.029ZM70.5096 105.84L69.8674 103.673H67.2003L66.558 105.84H65.6109L67.9405 98.2412H69.1489L71.4785 105.84H70.5096ZM68.5828 99.21H68.4848L67.418 102.879H69.6496L68.5828 99.21ZM76.6342 104.827H76.5798C76.5145 104.972 76.4383 105.114 76.3512 105.252C76.2641 105.39 76.1516 105.513 76.0137 105.622C75.8831 105.723 75.7234 105.807 75.5347 105.872C75.346 105.938 75.1211 105.97 74.8598 105.97C74.0325 105.97 73.4156 105.636 73.0092 104.969C72.61 104.301 72.4104 103.343 72.4104 102.095C72.4104 100.788 72.6318 99.7979 73.0745 99.1229C73.5172 98.448 74.1994 98.1105 75.1211 98.1105C75.4767 98.1105 75.7851 98.1577 76.0464 98.2521C76.3076 98.3464 76.529 98.4734 76.7104 98.6331C76.8991 98.7927 77.0551 98.9742 77.1785 99.1774C77.3019 99.3733 77.4035 99.5729 77.4833 99.7761L76.6995 100.135C76.6342 99.9684 76.558 99.8124 76.4709 99.6672C76.3911 99.5148 76.2895 99.3842 76.1661 99.2753C76.05 99.1592 75.9085 99.0685 75.7416 99.0032C75.5746 98.9379 75.3787 98.9052 75.1537 98.9052C74.5441 98.9052 74.0941 99.1338 73.8039 99.591C73.5208 100.048 73.3793 100.658 73.3793 101.42V102.596C73.3793 102.98 73.4083 103.332 73.4664 103.652C73.5244 103.964 73.6188 104.236 73.7494 104.468C73.8873 104.7 74.0615 104.882 74.2719 105.012C74.4897 105.136 74.7546 105.197 75.0666 105.197C75.5601 105.197 75.9448 105.049 76.2205 104.751C76.4963 104.453 76.6342 104.069 76.6342 103.597V102.813H75.034V102.084H77.4833V105.84H76.6342V104.827ZM79.2426 105.84V105.11H81.1368V98.9705H79.2426V98.2412H83.9453V98.9705H82.0512V105.11H83.9453V105.84H79.2426ZM86.6299 99.406H86.5537V105.84H85.7264V98.2412H87.0218L89.6127 104.609H89.6889V98.2412H90.5162V105.84H89.2208L86.6299 99.406ZM92.3626 105.84V98.2412H97.0436V99.0358H93.277V101.594H96.913V102.389H93.277V105.045H97.0436V105.84H92.3626ZM98.9444 98.2412H101.067C101.996 98.2412 102.689 98.5605 103.146 99.1991C103.604 99.8378 103.832 100.785 103.832 102.04C103.832 103.296 103.604 104.243 103.146 104.882C102.689 105.52 101.996 105.84 101.067 105.84H98.9444V98.2412ZM101.024 105.045C101.633 105.045 102.09 104.834 102.395 104.414C102.707 103.993 102.863 103.398 102.863 102.628V101.453C102.863 100.683 102.707 100.088 102.395 99.6672C102.09 99.2463 101.633 99.0358 101.024 99.0358H99.8588V105.045H101.024ZM111.945 105.84V98.2412H116.734V99.0358H112.859V101.594H116.408V102.389H112.859V105.84H111.945ZM119.278 98.2412V102.802C119.278 103.173 119.288 103.503 119.31 103.793C119.332 104.083 119.39 104.334 119.484 104.544C119.579 104.747 119.724 104.903 119.92 105.012C120.123 105.121 120.402 105.176 120.758 105.176C121.114 105.176 121.389 105.121 121.585 105.012C121.789 104.903 121.937 104.747 122.032 104.544C122.126 104.334 122.184 104.083 122.206 103.793C122.228 103.503 122.239 103.173 122.239 102.802V98.2412H123.153V102.585C123.153 103.151 123.124 103.644 123.066 104.065C123.015 104.486 122.903 104.838 122.728 105.121C122.562 105.404 122.318 105.618 121.999 105.763C121.687 105.901 121.273 105.97 120.758 105.97C120.243 105.97 119.825 105.901 119.506 105.763C119.194 105.618 118.951 105.404 118.777 105.121C118.61 104.838 118.497 104.486 118.439 104.065C118.389 103.644 118.363 103.151 118.363 102.585V98.2412H119.278ZM127.743 99.0358V105.84H126.828V99.0358H124.292V98.2412H130.279V99.0358H127.743ZM132.332 98.2412V102.802C132.332 103.173 132.343 103.503 132.365 103.793C132.387 104.083 132.445 104.334 132.539 104.544C132.633 104.747 132.779 104.903 132.975 105.012C133.178 105.121 133.457 105.176 133.813 105.176C134.168 105.176 134.444 105.121 134.64 105.012C134.843 104.903 134.992 104.747 135.086 104.544C135.181 104.334 135.239 104.083 135.261 103.793C135.282 103.503 135.293 103.173 135.293 102.802V98.2412H136.208V102.585C136.208 103.151 136.179 103.644 136.121 104.065C136.07 104.486 135.957 104.838 135.783 105.121C135.616 105.404 135.373 105.618 135.054 105.763C134.742 105.901 134.328 105.97 133.813 105.97C133.297 105.97 132.88 105.901 132.561 105.763C132.249 105.618 132.006 105.404 131.831 105.121C131.665 104.838 131.552 104.486 131.494 104.065C131.443 103.644 131.418 103.151 131.418 102.585V98.2412H132.332ZM138.968 105.84H138.054V98.2412H140.819C141.523 98.2412 142.06 98.4335 142.43 98.8181C142.8 99.2028 142.985 99.7398 142.985 100.429C142.985 101.046 142.826 101.54 142.506 101.91C142.187 102.28 141.723 102.494 141.113 102.552L143.051 105.84H142.027L140.177 102.596H138.968V105.84ZM140.797 101.823C141.182 101.823 141.479 101.728 141.69 101.54C141.908 101.344 142.017 101.068 142.017 100.712V100.146C142.017 99.7906 141.908 99.5185 141.69 99.3298C141.479 99.1338 141.182 99.0358 140.797 99.0358H138.968V101.823H140.797ZM144.581 105.84V98.2412H149.262V99.0358H145.496V101.594H149.132V102.389H145.496V105.045H149.262V105.84H144.581Z" fill="black"/>
<path d="M0 75.1H157.8" stroke="black" stroke-width="1.3608" stroke-miterlimit="10"/>
<path d="M78.9 2.20001H92.3" stroke="black" stroke-width="1.3608" stroke-miterlimit="10"/>
<path d="M41.2001 0.4L9.50005 24.1C9.20005 24.4 8.80005 24.5 8.30005 24.5H2.80005C1.70005 24.5 0.800049 25.4 0.800049 26.5V51C0.800049 52.1 1.70005 53.1 2.90005 53.1H12.4C12.9 53.1 13.3 52.9 13.7 52.7L45.3 28.9C45.6 28.7 45.9 28.6 46.3 28.6H52C53.1 28.6 54 27.7 54 26.6V2.1C53.9001 0.9 53 0 51.9001 0H42.4001C41.9001 0 41.5 0.1 41.2001 0.4Z" fill="black"/>
<path d="M21.2001 2V9.1C21.2001 9.8 20.9 10.4 20.4 10.8L8.00005 20.1C7.70005 20.3 7.30005 20.5 6.90005 20.5H2.80005C1.70005 20.5 0.800049 19.6 0.800049 18.5V5.2C0.800049 4.5 1.10005 3.9 1.70005 3.4L5.80005 0.4C6.10005 0.1 6.40005 0 6.80005 0H19.2001C20.3001 0 21.2001 0.9 21.2001 2Z" fill="black"/>
<path d="M89.1 40.3L85.6 46.5C85.5 46.6 85.5 46.8 85.6 47L89.1 53.3C89.3 53.6 89.1 54 88.7 54H87.3C87.1 54 87 53.9 86.9 53.8L83.7 48.2C83.6 48.1 83.5 48 83.3 48H80.6C80.5 48 80.4 48.1 80.4 48.2V53.6C80.4 53.9 80.2 54.1 79.9 54.1H78.6C78.3 54.1 78.1 53.9 78.1 53.6V40.1C78.1 39.8 78.3 39.6 78.6 39.6H80C80.3 39.6 80.5 39.8 80.5 40.1V45.5C80.5 45.6 80.6 45.7 80.7 45.7H83.4C83.6 45.7 83.7 45.6 83.8 45.5L86.9 39.9C87 39.8 87.1 39.7 87.3 39.7H88.7C89 39.6 89.2 40 89.1 40.3Z" fill="#010101"/>
<path d="M102.1 40.1V53.4C102.1 53.7 101.9 53.9 101.6 53.9H91.6C91.3 53.9 91.1 53.7 91.1 53.4V40.1C91.1 39.8 91.3 39.6 91.6 39.6H92.9C93.2 39.6 93.4 39.8 93.4 40.1V51.3C93.4 51.6 93.6 51.8 93.9 51.8H99.5C99.8 51.8 100 51.6 100 51.3V40.1C100 39.8 100.2 39.6 100.5 39.6H101.8C101.9 39.6 102.1 39.8 102.1 40.1Z" fill="#010101"/>
<path d="M131.6 40.1V53.4C131.6 53.7 131.4 53.9 131.1 53.9H121.1C120.8 53.9 120.6 53.7 120.6 53.4V40.1C120.6 39.8 120.8 39.6 121.1 39.6H122.4C122.7 39.6 122.9 39.8 122.9 40.1V51.3C122.9 51.6 123.1 51.8 123.4 51.8H129C129.3 51.8 129.5 51.6 129.5 51.3V40.1C129.5 39.8 129.7 39.6 130 39.6H131.3C131.4 39.6 131.6 39.8 131.6 40.1Z" fill="#010101"/>
<path d="M116.7 40.1V53.4C116.7 53.7 116.5 53.9 116.2 53.9H115C114.7 53.9 114.5 53.7 114.5 53.4V48C114.5 47.9 114.4 47.7 114.3 47.6L108.1 42.5C108 42.4 107.9 42.5 107.9 42.6V53.4C107.9 53.7 107.7 53.9 107.4 53.9H106.1C105.8 53.9 105.6 53.7 105.6 53.4V40.1C105.6 39.8 105.8 39.6 106.1 39.6H107.8C107.9 39.6 108 39.6 108.1 39.7L114.1 44.7C114.2 44.8 114.3 44.7 114.3 44.6V40.1C114.3 39.8 114.5 39.6 114.8 39.6H116.1C116.5 39.6 116.7 39.8 116.7 40.1Z" fill="#010101"/>
<path d="M146.4 40.1V53.4C146.4 53.7 146.2 53.9 145.9 53.9H144.6C144.3 53.9 144.1 53.7 144.1 53.4V43.4C144.1 43.3 144 43.2 143.9 43.3L141.1 47.8C141 48 140.7 48 140.6 47.8L139.9 46.6L137.9 43.3C137.8 43.2 137.7 43.2 137.7 43.4V53.4C137.7 53.7 137.5 53.9 137.2 53.9H136C135.7 53.9 135.5 53.7 135.5 53.4V40.1C135.5 39.8 135.7 39.6 136 39.6H137.6C137.8 39.6 137.9 39.7 138 39.8L140.9 44.2C140.9 44.3 141 44.3 141.1 44.2L144 39.8C144.1 39.7 144.2 39.6 144.4 39.6H146C146.2 39.6 146.4 39.8 146.4 40.1Z" fill="#010101"/>
<path d="M158.5 53.9H148.6C148.3 53.9 148.1 53.7 148.1 53.4V52.1C148.1 51.8 148.3 51.6 148.6 51.6H152.2C152.3 51.6 152.4 51.5 152.4 51.4V42C152.4 41.9 152.3 41.8 152.2 41.8H148.6C148.3 41.8 148.1 41.6 148.1 41.3V40C148.1 39.7 148.3 39.5 148.6 39.5H158.5C158.8 39.5 159 39.7 159 40V41.3C159 41.6 158.8 41.8 158.5 41.8H154.9C154.8 41.8 154.7 41.9 154.7 42V51.4C154.7 51.5 154.8 51.6 154.9 51.6H158.5C158.8 51.6 159 51.8 159 52.1V53.4C159 53.7 158.8 53.9 158.5 53.9Z" fill="#010101"/>
</g>
<defs>
<clipPath id="clip0">
<rect width="159" height="108.5" fill="white"/>
</clipPath>
</defs>
</svg>
